<?xml version="1.0" encoding="utf-8"?>
<!-- Generator: Adobe Illustrator 25.0.1, SVG Export Plug-In . SVG Version: 6.00 Build 0)  -->
<svg version="1.1" id="Layer_1" xmlns="http://www.w3.org/2000/svg" xmlns:xlink="http://www.w3.org/1999/xlink" x="0px" y="0px"
	 viewBox="0 0 595.3 841.9" style="enable-background:new 0 0 595.3 841.9;" xml:space="preserve">
<style type="text/css">
	.st0{fill:#193755;}
	.st1{fill:#4BC6E3;}
</style>
<g id="LOGO_1_">
	<path class="st0" d="M122,119.7h244c85.4,0,125,54.9,125,109.8c0,53.4-33.5,90-73.2,99.1c45.7,7.6,82.3,50.3,82.3,105.2
		c0,62.5-41.2,117.4-126.6,117.4H122V119.7z M341.6,285.9c22.9,0,38.1-16.8,38.1-38.1s-15.2-36.6-38.1-36.6H233.3v74.7L341.6,285.9
		L341.6,285.9z M344.6,458.2c25.9,0,42.7-16.8,42.7-39.6c0-21.3-15.2-41.2-42.7-41.2H233.3v79.3h111.3V458.2z"/>
</g>
<g id="turquoise-line_1_">
	<rect id="line_1_" x="19.8" y="638.1" class="st1" width="560.8" height="38.1"/>
</g>
</svg>
